<svg width="191" height="191" viewBox="0 0 191 191" fill="none" xmlns="http://www.w3.org/2000/svg">
<path d="M138.457 71.7237L172.175 38.0067L152.635 18.4661L118.917 52.1832L108.189 71.3406L103.591 69.4249L108.955 52.1832V0.458115H81.3688V52.1832L86.7328 69.4249L82.1347 71.3406L71.4066 52.1832L37.689 18.4661L18.1489 38.0067L51.8665 71.7237L71.0236 82.4519L69.1075 87.0497L51.8665 81.6856H0.140625V109.272H51.8665L69.1075 103.908L71.0236 108.506L51.8665 119.234L18.1489 152.951L37.689 172.492L71.4066 138.775L82.1347 119.617L86.7328 121.533L81.3688 138.775V190.5H108.955V138.775L103.591 121.533L108.189 119.617L118.917 138.775L152.635 172.492L172.175 152.951L138.457 119.234L119.3 108.506L121.216 103.908L138.457 109.272H190.183V81.6856H138.457L121.216 87.0497L119.3 82.4519L138.457 71.7237Z" fill="#0A0A0A"/>
</svg>
